<svg version="1.1" id="Layer_1" xmlns="http://www.w3.org/2000/svg" xmlns:xlink="http://www.w3.org/1999/xlink" x="0px" y="0px" viewBox="0 0 208.5345 229.4644" enable-background="new 0 0 208.5345 229.4644" xml:space="preserve">
<g>
	<path d="M49.6458,0.5914c-12.0976,2.8164-19.624,14.9101-16.8066,27.0097s14.9101,19.625,27.0097,16.8076
		c12.1006-2.8173,19.626-14.9111,16.8086-27.0107C73.8392,5.2984,61.7454-2.227,49.6458,0.5914z"></path>
	<path d="M100.3695,88.3521c-3.3096,0-6.003-2.6924-6.003-5.999V74.69c-1.7988-2.0313-3.4326-4.04-4.8706-5.9424
		c-2.6196-3.4521-4.6216-6.5361-5.9482-8.7217c-0.6626-1.0937-1.1582-1.9589-1.4766-2.5361
		c-0.1601-0.2861-0.2759-0.502-0.3462-0.6367c-0.0708-0.1328-0.0771-0.1475-0.0791-0.1475
		c-0.4023-0.7881-0.9204-1.4756-1.518-2.0635c-1.4156-1.791-3.6016-2.9433-6.0621-2.9433H35.431
		c-0.6392,0-1.2569,0.0859-1.8511,0.2324c-1.0024,0.0234-2.0166,0.2324-2.9927,0.6563c-0.6455,0.2939-8.0107,3.5283-15.5561,11.5986
		C7.492,72.1929-0.0534,85.4586,0.0003,104.0816c0,10.1035,2.1514,21.6816,7.2988,34.8506c1.0748,2.749,3.5049,4.5654,6.2261,4.9902
		c0.4043,0.0635,0.8145,0.0987,1.228,0.0987c0.2666,0,0.5342-0.0166,0.8018-0.044c0.1426,1.0986,0.1577,2.1201-0.0156,2.9873
		c-1.0615,5.3057-21.2227,41.0303,4.9521,45.6279c2.6333,0.4629,5.0264,0.6045,7.211,0.4913
		c19.5278-1.0079,21.5039-23.3858,12.5966-38.3379c-3.9111-6.5645-8.3012-9.9864-12.5966-12.4043
		c-1.9517-1.0996-3.8828-1.9942-5.7412-2.876c0.2905-0.6084,0.5043-1.25,0.6347-1.9141c0.2827-1.4414,0.1807-2.9756-0.393-4.4443
		c-4.5445-11.6299-6.2027-21.2012-6.2027-29.0254c0.0518-14.3467,5.3941-23.1592,10.7393-28.9893
		c0.3213-0.3447,0.6426-0.6757,0.9629-0.997v34.7851v18.9395v12.2373c4.8125,2.5605,9.8545,6.1767,14.3134,13.665
		c6.1407,10.3067,7.0879,23.3867,2.3057,31.8057c-2.3755,4.1797-7.1797,9.1162-16.6191,9.5596v21.7324
		c0,6.8281,5.5371,12.3633,12.3652,12.3633c6.8262,0,12.3633-5.5352,12.3633-12.3633v-81.2735h4.7715v81.2735
		c0,6.8281,5.5371,12.3633,12.3652,12.3633c6.8262,0,12.3633-5.5352,12.3633-12.3633V108.8804c0-0.5927-0.0562-1.1709-0.1367-1.7422
		V84.6236c0.6279,0.7207,1.2754,1.4473,1.9433,2.1758c5.0957,5.5459,11.3867,11.25,18.9175,15.9551l-0.8726-14.4024H100.3695z
		 M41.4173,175.0201c-3-12.834-13.667-29-13.667-29S45.4173,162.0201,41.4173,175.0201z"></path>
	<path d="M204.5345,203.4644h-4c-2.209,0-4,1.791-4,4v6h-4.834l7.7031-127.1113h3.2979c2.209,0,4-1.791,4-4v-10c0-2.209-1.791-4-4-4
		h-4.834v-7.333h-92.666v7.333h-4.833c-2.209,0-4,1.791-4,4v4.5322v5.4678c0,2.209,1.791,4,4,4h3.2969l1.0708,17.6709
		l6.6323,109.4404h-4.834v-6c0-2.209-1.791-4-4-4h-4c-2.209,0-4,1.791-4,4v18c0,2.209,1.791,4,4,4h4c2.209,0,4-1.791,4-4v-6h5.1982
		l0.0537,0.8906h79.4961l0.0538-0.8906h5.1982v6c0,2.209,1.791,4,4,4h4c2.209,0,4-1.791,4-4v-18
		C208.5345,205.2554,206.7435,203.4644,204.5345,203.4644z"></path>
</g>
</svg>