<svg xmlns="http://www.w3.org/2000/svg" xml:space="preserve" width="1.70666in" height="1.70666in" version="1.1" style="shape-rendering:geometricPrecision; text-rendering:geometricPrecision; image-rendering:optimizeQuality; fill-rule:evenodd; clip-rule:evenodd" viewBox="0 0 1706.66 1706.66" xmlns:xlink="http://www.w3.org/1999/xlink" xmlns:xodm="http://www.corel.com/coreldraw/odm/2003">
 <defs>
  <style type="text/css">
   
    .fil0 {fill:black}
   
  </style>
 </defs>
 <g id="Layer_x0020_1">
  <metadata id="CorelCorpID_0Corel-Layer"></metadata>
  <path class="fil0" d="M1301.53 1706.67l-896.4 0c-118.33,0 -214.44,-96.25 -214.44,-214.44l0 -595.69c0,-118.33 96.25,-214.44 214.44,-214.44l896.4 0c118.33,0 214.44,96.25 214.44,214.44l0 595.69c0,118.2 -96.11,214.44 -214.44,214.44zm-771.04 -289.85c-1.03,-1.18 -1.93,-2.48 -2.66,-3.86 -42.11,-62.5 -66.72,-137.73 -66.72,-218.58 0,-216.25 175.97,-392.22 392.22,-392.22 216.25,0 392.22,175.98 392.22,392.22 0,214.61 -174.12,392.22 -392.22,392.22 -133.72,0 -252.01,-67.3 -322.85,-169.78zm18 -46.09c154.61,-154.31 452.12,-156.15 609.59,0.04 135.05,-232.34 -32.53,-528.48 -304.75,-528.48 -272.08,0 -439.75,296.16 -304.84,528.43zm587.09 34.1c-139.85,-147.26 -424.58,-147.35 -564.47,0.11 141.2,188.75 423.33,188.69 564.47,-0.11zm-282.24 -201.97c-62.37,0 -113.06,-50.69 -113.06,-113.06 0,-62.36 50.69,-113.06 113.06,-113.06 62.36,0 113.06,50.69 113.06,113.06 0,62.22 -50.69,113.06 -113.06,113.06zm0 -186.12c-96.15,0 -96.15,146.11 0,146.11 96.14,0 96.14,-146.11 0,-146.11z"></path>
  <path class="fil0" d="M345.55 731.53c-11.02,0 -20,-8.98 -20,-20l-0.01 -254.04c0,-252.22 205.28,-457.5 457.5,-457.5l140.56 0c252.22,0 457.5,205.28 457.5,457.5l0 254.03c0,35.17 -43.34,10.56 -79.44,10.56 -24.8,0 -57.5,5.86 -57.5,-20l0 -244.58c0,-176.67 -143.75,-320.42 -320.42,-320.42l-140.69 0c-176.67,0 -320.42,143.75 -320.42,320.42l0 244.58c0,35.7 -50.76,8.53 -110.83,28.48 -2.08,0.69 -4.17,0.97 -6.25,0.97z"></path>
 </g>
</svg>